<?xml version="1.0" encoding="UTF-8"?>
<svg id="Layer_1" data-name="Layer 1" xmlns="http://www.w3.org/2000/svg" viewBox="0 0 1196.0974 412">
  <defs>
    <style>
      .cls-1 {
        fill: #fff;
      }

      .cls-2 {
        fill: #b70000;
      }

      .cls-3 {
        fill: #b40023;
      }

      .cls-4 {
        fill: #efead8;
      }

      .cls-5 {
        fill: none;
      }

      .cls-6 {
        fill: #b50000;
      }

      .cls-7 {
        stroke: #000;
        stroke-miterlimit: 10;
        stroke-width: 12px;
      }
    </style>
  </defs>
  <g>
    <path d="M98.4024,154.4565c.3418-1.3667,1.7085-4.7837,1.8794-6.1504h16.9126v39.9761h-17.938l-.854-11.6172c-5.9795-7.3457-19.1338-12.6416-35.5342-12.6416-24.9424,0-42.0259,14.521-42.0259,39.9756,0,26.1387,18.792,41.8555,44.0762,41.8555,18.4502,0,35.1924-10.5918,38.438-29.7256,2.0503,.854,14.1797,6.3203,16.23,7.0039-3.417,31.6055-31.7759,42.5391-57.231,42.5391-36.3882,0-62.3555-26.1387-62.3555-61.6729,0-38.6089,27.6758-59.1094,63.3809-59.1094,14.8628,0,26.6504,3.7583,35.0215,9.5669h0Z"/>
    <path d="M381.3331,148.3061c7.8584,15.0337,32.2881,64.9185,39.9761,79.7808l39.9756-79.7808h36.5596v19.1338h-12.1299v75.6812h12.1299v18.792h-46.6387v-17.5967c2.5625-.1709,12.6416-1.1953,15.2041-1.1953v-60.4766c-7.8584,14.6919-32.6299,64.7471-40.4883,79.4395h-9.2251l-40.3179-79.4395v60.4766c2.5625,0,12.6421,1.0244,15.2046,1.1953v17.5967h-46.6387v-18.792h12.1294v-75.6812h-12.1294v-19.1338h36.3886Z"/>
    <path d="M554.0513,215.9579v26.9922h15.376v18.9629h-46.8096v-18.792c6.8335,0,9.5669,0,12.1299-.1709v-75.8521c-3.5879,0-5.2964,.3418-12.1299,.3418v-19.1338c6.6631,0,72.0938-.854,80.4648-.854,32.2881,0,46.2969,12.6416,46.2969,33.313,0,16.23-14.5215,34.6802-39.9766,34.6802l-55.3516,.5127h.0002Zm0-49.2012v31.6045h45.9561c17.4248,0,26.6504-6.1499,26.6504-16.5708,0-9.7378-7.1748-15.5464-22.5508-15.5464-7.3457,0-44.7588,.5127-50.0557,.5127h0Z"/>
    <path d="M727.1138,146.5976c8.542,16.9131,38.9512,79.4395,47.4932,96.3525,2.0498,.1709,4.4414,.1709,12.1289,.1709v18.792h-45.1006l-.5127-17.2549c2.2207,0,9.7383-1.0244,12.1299-1.1953l-10.4219-20.6719h-52.6172l-10.25,20.6719,11.7871,1.1953c-.1709,3.9297-.1709,13.3252-.3418,17.2549h-44.9297v-18.792c7.6875,0,9.9082,0,12.1289-.1709l47.3223-96.3525h21.1835Zm7.0049,57.4014c-5.6377-11.2749-11.1045-22.8921-17.5967-36.5591l-17.5957,36.5591h35.1924Z"/>
    <path d="M898.979,146.5976h16.7422c0,13.4961,.1699,22.5508,.1699,35.876h-17.9375c-.3418-3.7583-.8545-7.5166-1.3672-11.4463-3.416-2.2207-17.5957-7.8584-35.7041-7.8584-15.376,0-32.6299,4.1001-32.6299,16.4004,0,26.9922,92.5938-1.708,92.5938,46.4678,0,31.0928-31.6055,40.1465-56.7188,40.1465-17.4248,0-31.2627-6.1494-39.9756-11.7871v7.5166h-19.3047v-40.4883h17.2549c.8535,4.2705,1.5371,8.3711,2.2207,12.6416,8.2002,5.6377,22.3799,11.959,37.7549,11.959,13.3252,0,37.584-2.7334,37.584-18.4502,0-29.2139-93.96,3.0742-93.96-46.1265,0-28.7007,34.5088-36.2178,56.2051-36.2178,15.7168,0,28.1885,3.7588,35.1924,7.8589l1.8799-6.4922h0Z"/>
    <path d="M1040.9478,146.5976h16.7422c0,13.4961,.1699,22.5508,.1699,35.876h-17.9375c-.3418-3.7583-.8545-7.5166-1.3672-11.4463-3.416-2.2207-17.5957-7.8584-35.7041-7.8584-15.376,0-32.6299,4.1001-32.6299,16.4004,0,26.9922,92.5938-1.708,92.5938,46.4678,0,31.0928-31.6055,40.1465-56.7188,40.1465-17.4248,0-31.2627-6.1494-39.9756-11.7871v7.5166h-19.3047v-40.4883h17.2549c.8535,4.2705,1.5371,8.3711,2.2207,12.6416,8.2002,5.6377,22.3799,11.959,37.7549,11.959,13.3252,0,37.584-2.7334,37.584-18.4502,0-29.2139-93.96,3.0742-93.96-46.1265,0-28.7007,34.5088-36.2178,56.2051-36.2178,15.7168,0,28.1885,3.7588,35.1924,7.8589l1.8799-6.4922h0Z"/>
  </g>
  <g>
    <path class="cls-4" d="M106.4024,142.4565c.3418-1.3667,1.7085-4.7837,1.8794-6.1504h16.9126v39.9761h-17.938l-.854-11.6172c-5.9795-7.3457-19.1338-12.6416-35.5342-12.6416-24.9424,0-42.0259,14.521-42.0259,39.9756,0,26.1387,18.792,41.8555,44.0762,41.8555,18.4502,0,35.1924-10.5918,38.438-29.7256,2.0503,.854,14.1797,6.3203,16.23,7.0039-3.417,31.6055-31.7759,42.5391-57.231,42.5391-36.3882,0-62.3555-26.1387-62.3555-61.6729,0-38.6089,27.6758-59.1094,63.3809-59.1094,14.8628,0,26.6504,3.7583,35.0215,9.5669h0Z"/>
    <path class="cls-4" d="M389.3331,136.3061c7.8584,15.0337,32.2881,64.9185,39.9761,79.7808l39.9756-79.7808h36.5596v19.1338h-12.1299v75.6812h12.1299v18.792h-46.6387v-17.5967c2.5625-.1709,12.6416-1.1953,15.2041-1.1953v-60.4766c-7.8584,14.6919-32.6299,64.7471-40.4883,79.4395h-9.2251l-40.3179-79.4395v60.4766c2.5625,0,12.6421,1.0244,15.2046,1.1953v17.5967h-46.6387v-18.792h12.1294v-75.6812h-12.1294v-19.1338h36.3886Z"/>
    <path class="cls-4" d="M562.0513,203.9579v26.9922h15.376v18.9629h-46.8096v-18.792c6.8335,0,9.5669,0,12.1299-.1709v-75.8521c-3.5879,0-5.2964,.3418-12.1299,.3418v-19.1338c6.6631,0,72.0938-.854,80.4648-.854,32.2881,0,46.2969,12.6416,46.2969,33.313,0,16.23-14.5215,34.6802-39.9766,34.6802l-55.3516,.5127h.0002Zm0-49.2012v31.6045h45.9561c17.4248,0,26.6504-6.1499,26.6504-16.5708,0-9.7378-7.1748-15.5464-22.5508-15.5464-7.3457,0-44.7588,.5127-50.0557,.5127h0Z"/>
    <path class="cls-4" d="M735.1138,134.5976c8.542,16.9131,38.9512,79.4395,47.4932,96.3525,2.0498,.1709,4.4414,.1709,12.1289,.1709v18.792h-45.1006l-.5127-17.2549c2.2207,0,9.7383-1.0244,12.1299-1.1953l-10.4219-20.6719h-52.6172l-10.25,20.6719,11.7871,1.1953c-.1709,3.9297-.1709,13.3252-.3418,17.2549h-44.9297v-18.792c7.6875,0,9.9082,0,12.1289-.1709l47.3223-96.3525h21.1835Zm7.0049,57.4014c-5.6377-11.2749-11.1045-22.8921-17.5967-36.5591l-17.5957,36.5591h35.1924Z"/>
    <path class="cls-4" d="M906.979,134.5976h16.7422c0,13.4961,.1699,22.5508,.1699,35.876h-17.9375c-.3418-3.7583-.8545-7.5166-1.3672-11.4463-3.416-2.2207-17.5957-7.8584-35.7041-7.8584-15.376,0-32.6299,4.1001-32.6299,16.4004,0,26.9922,92.5938-1.708,92.5938,46.4678,0,31.0928-31.6055,40.1465-56.7188,40.1465-17.4248,0-31.2627-6.1494-39.9756-11.7871v7.5166h-19.3047v-40.4883h17.2549c.8535,4.2705,1.5371,8.3711,2.2207,12.6416,8.2002,5.6377,22.3799,11.959,37.7549,11.959,13.3253,0,37.584-2.7334,37.584-18.4502,0-29.2139-93.96,3.0742-93.96-46.1265,0-28.7007,34.5088-36.2178,56.2051-36.2178,15.7169,0,28.1885,3.7588,35.1924,7.8589l1.8799-6.4922h0Z"/>
    <path class="cls-4" d="M1048.9478,134.5976h16.7422c0,13.4961,.1699,22.5508,.1699,35.876h-17.9375c-.3418-3.7583-.8545-7.5166-1.3672-11.4463-3.416-2.2207-17.5957-7.8584-35.7041-7.8584-15.376,0-32.6299,4.1001-32.6299,16.4004,0,26.9922,92.5938-1.708,92.5938,46.4678,0,31.0928-31.6055,40.1465-56.7188,40.1465-17.4248,0-31.2627-6.1494-39.9756-11.7871v7.5166h-19.3047v-40.4883h17.2549c.8535,4.2705,1.5371,8.3711,2.2207,12.6416,8.2002,5.6377,22.3799,11.959,37.7549,11.959,13.3252,0,37.584-2.7334,37.584-18.4502,0-29.2139-93.96,3.0742-93.96-46.1265,0-28.7007,34.5088-36.2178,56.2051-36.2178,15.7168,0,28.1885,3.7588,35.1924,7.8589l1.8799-6.4922h0Z"/>
  </g>
  <path d="M212.8594,228.7985c-1.9792-2.0946-5.0296-5.2159-8.9519-8.7985-5.947-5.432-10.2701-8.6105-12-10-11.8177-9.4922-19.2317-29.162-20-46-.5836-12.7898,2.812-20.7691,0-22-3.1802-1.3921-10.5963,7.4683-14.8759,15.0854-9.0318,16.0757-7.5103,32.696-7.1241,36.9146,3.5635,38.9258,46.0133,64.2715,50.2393,66.7198,.0032,.424,.0591,3.6725,1.5833,4.222,1.4302,.5156,3.3374-1.6392,4.2221-2.6388,5.1987-5.8737,6.5217-25.2614,6.9072-33.5046Z"/>
  <path d="M272.704,239.4013c1.5421,3.4545,3.0842,6.9091,4.6263,10.3637,1.6026,1.2373,3.7624,3.1894,5.8319,6.0853,2.0738,2.9018,3.3124,5.7095,4.0485,7.7476,3.1133-1.4035,13.799-6.5308,23.3404-18.1001,6.383-7.7396,9.3902-14.8599,11.2182-19.3244,11.3696-27.7681,3.4217-55.5936,3.4217-55.5937-4.1198-12.3595-9.9029-24.2254-12.2834-23.5797-1.8123,.4916-.4131,7.8853-1,27-.3134,10.2082-.5007,15.426-2,21-1.6271,6.0493-3.9182,14.5672-11,21-2.2546,2.048-3.2294,2.5411-9.9376,7.9001-2.1707,1.7341-4.7805,3.9683-8.0624,7.0999-3.5946,3.43-6.3917,6.4084-8.2035,8.4013Z"/>
  <path d="M215.9631,225.494c3.996-.4905,9.197-.8777,15.2808-.6647,6.6205,.2316,11.4955,1.0724,16.3216,1.9311,10.2045,1.8159,15.3067,2.7238,17.3624,4.5271,7.3081,6.4108,2.9356,15.3294,11.1965,22.7559,3.1382,2.8212,6.3199,3.8272,8.725,8.6007,.9911,1.9671,1.5857,4.0487,2.6593,7.8081,1.2552,4.3947,1.8828,6.5921,1.7561,8.3756,0,0-.1342,1.8912-3.7546,9.6719-.4798,3.1903-.9596,6.3807-1.4393,9.5712,.2871,1.7812,.536,3.7125,.7154,5.7796,.2134,2.46,.2973,4.7556,.2982,6.8543-3.5673-.8489-13.0828-2.5462-23.5471,2.6092-13.7252,6.7619-19.1376,20.4135-20.3143,23.5986-9.4905-4.8697-18.981-9.7392-28.4714-14.6089-.0566-.5822-.3368-2.8479-2.0587-4.6647-1.5189-1.6028-3.2378-1.8833-3.7962-1.9478-1.2792-4.5226-2.5585-9.045-3.8378-13.5675,4.4764-9.4476,4.6837-18.7812,3.1353-23.9077-1.5814-5.236-4.7469-9.3002-4.7469-9.3002-.5146-.6608-.971-1.1798-1.2915-1.5302,1.7756-.0922,4.4026-.5405,6.854-2.4112,2.7387-2.0899,4.7539-5.5697,6.7208-16.1399,1.0455-5.6189,2.1361-13.5569,2.2321-23.3401h0Z"/>
  <path d="M198.3514,290.9054c-4.7496,.986-12.6111,1.9534-21.921-.2344-8.2124-1.9298-21.7303-5.1063-24.1537-15.5815-2.0715-8.9539,4.8258-19.5118,12.5323-23.7117,9.0307-4.9214,18.2695-.6198,21.4261,.8499,5.9097,2.7515,9.8033,6.9493,11.8939,9.5807,1.3797,1.7161,3.657,5.0554,4.6041,9.8979,1.9783,10.1151-3.5559,18.0536-4.3816,19.199h0Z"/>
  <path d="M289.5025,292.6375c2.2151-.873,5.3996-1.728,9.2152-1.4574,9.1873,.6516,14.9414,7.3259,16.1568,8.8056,2.688,3.2723,4.6304,5.6371,4.5574,8.782-.1774,7.6459-12.115,13.3294-20.7041,14.6353-5.8538,.89-10.7091-.1688-13.4975-.9975,1.4936-3.9338,3.1285-9.3588,3.9424-16.0191,.6513-5.3296,.6024-10.0223,.3297-13.7489h.0001Z"/>
  <path d="M136.9254,328.2435c9.9822-8.7101,19.9644-17.4204,29.9467-26.1306,3.1141,1.5814,7.2484,3.2597,12.2459,4.2215,7.5387,1.4509,13.8935,.6655,18.0821-.2584,.926,8.4695,2.9333,15.2731,4.7206,20.1021,4.3126,11.6517,7.1499,19.3178,14.5866,24.2593,6.0544,4.023,11.2147,3.6204,16.3602,10.0273,2.0419,2.5423,3.1415,4.9865,4.2221,7.3885,2.9854,6.6362,3.9807,12.6061,4.3461,16.5925-3.2213,7.7118-6.4426,15.4234-9.664,23.1352-24.8236,9.4855-52.1096,3.4842-71.2103-15.9191-24.033-24.4138-23.7492-58.5067-23.6359-63.4183h0Z"/>
  <path class="cls-3" d="M276.5676,360.2025c1.2052,.1425,10.8221,1.116,17.8298-6.0582,6.1326-6.2784,7.4484-15.9111,4.439-22.1782-2.2755-4.7386-6.762-7.0084-6.2094-7.855,.5728-.8778,5.3508,.8714,8.9586,3.308,.584,.3945,1.0656,.7584,1.4295,1.0467,.9746,.8491,1.9493,1.6981,2.9239,2.5471,1.651,1.6561,6.2666,6.7323,6.6189,14.147,.4439,9.3376-6.0556,18.5558-16.3602,22.6933-3.137-.585-6.9419-1.5681-11.0886-3.268-3.3639-1.379-6.214-2.9267-8.5415-4.3827h0Z"/>
  <path d="M257.6869,331.4418c-1.2264,1.7135-5.3582,7.9174-5.2857,17.134,.0792,10.0831,5.1348,16.6929,6.3595,18.2121,.2963,1.5687,1.6651,7.9475,7.0333,12.372,5.3239,4.388,10.9559,3.8658,12.6861,3.6741,9.512-1.0537,14.5959-9.9755,15.2852-11.2299-7.2531-3.2061-14.5062-6.4123-21.7593-9.6184-1.491,.6396-5.7546,2.2149-9.2841-.1244-3.6033-2.3883-4.3449-7.4671-5.2269-13.5071-.5476-3.75-.9956-9.6294,.1921-16.9124h-.0002Z"/>
  <path d="M210.5699,336.133c10.3464,6.7692,20.6927,13.5386,31.0391,20.3079,.3302,7.4716,1.4182,18.5874,5.0807,31.4739,2.8436,10.0054,4.8766,16.8776,9.1378,18.0912,5.4428,1.5502,12.8805-6.599,18.6455-19.2999-2.2145-1.1362-4.4289-2.2725-6.6433-3.4088-.7797,1.9625-5.5136,13.6316-10.0997,13.1174-4.0096-.4496-5.8761-9.984-7.4468-18.0066-.9755-4.9829-2.7635-16.2843-.5277-31.1373,1.1522-7.6546,1.7887-11.5689,4.7498-15.8325,5.5913-8.0511,14.2117-10.2242,15.7114-10.5783,9.3778-2.2145,16.7864,1.3786,18.6599,2.3578-.8788-2.427-1.7576-4.8539-2.6365-7.2808-3.6897-.8734-11.7889-2.2165-20.6521,1.2522-17.6637,6.9127-21.8295,26.4665-22.1454,28.0788-11.2495-6.2018-22.4991-12.4035-33.7486-18.6053,.292,3.1568,.584,6.3136,.876,9.4704h0Z"/>
  <path class="cls-1" d="M178.3625,260.2151c.2804-.735-5.2057-5.6858-10.1832-3.8331-4.2796,1.593-5.7983,7.3279-5.0537,7.896,.6657,.5079,2.8381-3.3433,7.6881-4.4421,4.2443-.9616,7.347,.9078,7.5487,.3791h0Z"/>
  <path class="cls-1" d="M309.1014,311.5785c.6607-.2555,.6655-6.9102-3.5745-9.1231-3.6456-1.9026-8.3977,.5385-8.3289,1.3792,.0615,.7515,3.9476-.1168,7.6064,2.4653,3.202,2.2597,3.8218,5.4623,4.297,5.2785h0Z"/>
  <path class="cls-1" d="M231.812,276.5522c-4.8303-3.9203-4.2914-7.3663-7.9163-8.9718-3.6336-1.6093-9.0878-.3225-10.555,2.6388-1.8646,3.7633,2.7832,10.0833,7.9163,12.666,7.5797,3.8138,17.3374,.0423,17.4158-2.111,.0435-1.1951-2.9263-1.0288-6.8608-4.222h0Z"/>
  <path d="M263.3747,329.9594c6.2144-3.8013,11.6371-4.3622,14.4518-4.4194,5.8959-.1198,15.8234,1.5984,17.6593,7.2039,.534,1.6302,.5029,3.9527-.6422,4.7062-2.5578,1.6828-8.6335-5.8038-11.1471-4.1845-1.4095,.908-1.5139,4.5604,.1894,6.4176,2.7856,3.0371,8.6959-.5911,10.9096,2.0216,1.849,2.1822-.1047,7.2743-2.4731,10.3153-5.3884,6.919-15.3325,6.3162-16.8289,6.2255-2.9765-.1804-10.7429-.6511-14.5219-6.7757-3.0225-4.8985-2.8433-12.3589,.3581-14.3325,3.9175-2.4151,10.2979,4.6568,14.1184,1.9268,1.944-1.3891,2.5923-4.8636,1.3792-6.2035-2.5282-2.7926-12.7349,4.1367-14.6179,1.7335-.7143-.9116,.0657-2.7871,1.1652-4.6348h0Z"/>
  <path class="cls-1" d="M242.367,346.7431c-.4533,.0529-1.4839,.2419-2.111,1.0555-1.1542,1.4973-.5112,4.5506,1.5833,5.2775,1.6963,.5888,3.818-.5315,4.2221-2.111,.4307-1.6842-1.0738-3.9596-3.6942-4.2221h-.0001Z"/>
  <path class="cls-1" d="M214.5088,331.4863c-.3763,.0439-1.2316,.2007-1.7522,.8761-.958,1.2428-.4244,3.7771,1.3141,4.3804,1.4081,.4887,3.1691-.4411,3.5044-1.7522,.3575-1.3979-.8913-3.2866-3.0663-3.5044Z"/>
  <path class="cls-7" d="M1171.4275,278.14c-13.65,18.3799-37.02,29.18-62.41,29.87-.6801,.0099-1.38,.03-2.0599,.02-.02,0-.03,.01-.05,0-10.29,.05-20.87-1.56-31.24-4.99-.02-.01-.04-.01-.05-.02-8.46-2.8-16.78-6.8199-24.6799-12.14h-.01c-.55-.37-1.0901-.75-1.64-1.14-4.24-2.97-8.35-6.32-12.2999-10.08,5.1499-2.28,14.0199-6.75,22.99-14.59,10.4299,13.35,26.6799,21.93,44.9299,21.93,31.48,0,57-25.52,57-57s-25.52-57-57-57c-7.15,0-13.99,1.32-20.29,3.72-2.6499-10.46-6.02-17.59-6.72-19.01,21.4199-7.39,44.1799-6.44,63.27,2.2401,6.78,3.08,13.09,7.12,18.72,12.11,2.2,1.95,4.26,4.01,6.1799,6.17,25.1702,28.34,25.4801,72.81,5.3601,99.91Z"/>
  <path class="cls-6" d="M1196.0974,.19c-9.73,56.9367-19.46,113.8733-29.1899,170.81-2.9983-2.3245-6.3269-4.6874-10-7-7.8534-4.9445-15.3839-8.4641-22-11,20.3966-50.9367,40.7933-101.8733,61.1899-152.81Z"/>
  <path d="M1166.0674,178.23c-.3499,2.08-.7,4.15-1.0499,6.23-3.0699-5.59-9.7999-15.95-22.38-23.64-.49-.3-.98-.59-1.47-.87,6.78,3.08,13.09,7.12,18.72,12.11,2.2,1.95,4.26,4.01,6.1799,6.17Z"/>
  <path d="M1195.4676,1.14c-20.17,51.9-40.3401,103.81-60.5,155.71-18.74-8.08-36.41-4.51-40.9301-3.48,33.8099-50.74,67.62-101.49,101.4301-152.23Z"/>
  <path class="cls-2" d="M1073.9075,308c-2.3237,4.6074-4.631,9.264-6.9199,13.97-12.209,25.1004-23.0331,49.8228-32.6401,74.01-.21,.25-.4199,.49-.6299,.74,4.73-33.5733,9.46-67.1466,14.1899-100.72,3.7003,2.3156,8.0356,4.731,13,7,4.6575,2.1288,9.0442,3.7518,13,5Z"/>
  <path d="M1109.1775,307.82c-.05,.06-.1101,.13-.16,.19l-74.64,87.93c-.01,.01-.02,.03-.03,.04,10.53-24.49,21.41-49.17,32.6401-74.01,2.6899-5.96,5.3899-11.89,8.0999-17.8,.03,.02,.05,.03,.0701,.03,12.97,4.37,24.47,4.43,31.75,3.83,.02,.01,.03,0,.05,0,.79-.06,1.53-.13,2.22-.21Z"/>
  <path class="cls-5" d="M1134.9675,156.85l-.06,.15"/>
  <path class="cls-5" d="M1195.9075,0c-.15,.38-.3,.76-.44,1.14"/>
  <path d="M1077.9075,298l-2.24,5.04-.51,1.16-40.78,91.74-.47,1.06c.15-.34,.29-.68,.4399-1.02,10.53-24.49,21.41-49.17,32.6401-74.01,2.6899-5.96,5.3899-11.89,8.0999-17.8,.17-.38,.3401-.77,.53-1.15,.76-1.68,1.52-3.35,2.29-5.02Z"/>
</svg>