<?xml version="1.0" encoding="UTF-8"?>
<svg id="Layer_1" data-name="Layer 1" xmlns="http://www.w3.org/2000/svg" viewBox="0 0 64 64">
  <defs>
    <style>
      .cls-1 {
        fill: none;
      }

      .cls-2 {
        fill-rule: evenodd;
      }
    </style>
  </defs>
  <line class="cls-1" x1="32" y1="-4.5" x2="32" y2="66.5"/>
  <path class="cls-2" d="M22.5343,64.3702c-3.1478,.0316-6.9477-.4798-10.4925-2.5833C-1.8945,53.5172-3.6886,25.5046,7.9279,10.6959,13.9883,2.9701,23.3928-.7717,24.2268,.2418c.7278,.8843-5.5558,4.8006-9.2126,13.3117-3.0249,7.0404-5.9161,19.8199,1.0588,27.34,2.9859,3.2193,6.9007,4.5401,9.927,5.1066-1.1552,6.1234-2.3104,12.2468-3.4657,18.3702Z"/>
  <path class="cls-2" d="M41.7404,64.3702c3.1478,.0316,6.9477-.4798,10.4925-2.5833,13.9364-8.2698,15.7304-36.2824,4.114-51.091C50.2864,2.9701,40.8819-.7717,40.0479,.2418c-.7278,.8843,5.5558,4.8006,9.2126,13.3117,3.0249,7.0404,5.9161,19.8199-1.0588,27.34-2.9859,3.2193-6.9007,4.5401-9.927,5.1066,1.1552,6.1234,2.3104,12.2468,3.4657,18.3702Z"/>
</svg>